Coordinates
version=1
nRows=19
nColumns=24
inDegrees=yes

Units are S.I. units (second, meters, Newtons, ...)
Angles are in degrees.

endheader
time	pelvis_tilt	pelvis_list	pelvis_rotation	pelvis_tx	pelvis_ty	pelvis_tz	hip_flexion_r	hip_adduction_r	hip_rotation_r	knee_angle_r	ankle_angle_r	subtalar_angle_r	mtp_angle_r	hip_flexion_l	hip_adduction_l	hip_rotation_l	knee_angle_l	ankle_angle_l	subtalar_angle_l	mtp_angle_l	lumbar_extension	lumbar_bending	lumbar_rotation
      1.22000000	     11.37868089	     -1.29804746	     -2.67628175	     -0.48842205	      0.93763151	      0.04433658	    -22.83903711	      1.05739204	      3.58592802	     -9.22895519	     31.59652523	      9.74420528	     11.04967252	      5.78291562	     -3.90574552	    -23.25942467	     -2.83822955	      7.06909623	     28.36893145	     38.42708440	    -25.67281609	      3.07102800	      4.98663936
      1.22500000	     11.30166989	     -1.38205057	     -2.79829067	     -0.48383554	      0.93686918	      0.04394227	    -22.92902990	      1.04572585	      3.64134575	     -9.50871015	     31.84262274	      9.90446398	      9.79423240	      5.99628450	     -3.99345730	    -22.65251558	     -3.58021133	      7.00151739	     27.69697250	     38.70631129	    -25.58154822	      3.00227422	      5.04183024
      1.23000000	     11.37529117	     -1.39324539	     -2.98142187	     -0.47914213	      0.93637688	      0.04351908	    -23.21315282	      0.91804452	      3.74777333	     -9.71193225	     31.95532218	      9.96678264	      9.74265472	      5.95300003	     -3.96229301	    -22.06577912	     -4.16451103	      6.76232479	     26.93062465	     38.67937907	    -25.64354531	      2.83536779	      5.15664706
      1.23500000	     11.35581631	     -1.39700691	     -3.08130841	     -0.47449562	      0.93578681	      0.04291143	    -23.35265074	      0.81146695	      3.69704713	    -10.01148695	     32.09879277	     10.16831345	      9.72246702	      6.04655026	     -3.91842347	    -21.30626587	     -4.79780573	      6.44810387	     26.06468585	     38.66298316	    -25.60541874	      2.70026822	      5.13317123
      1.24000000	     11.36013425	     -1.38675682	     -3.20038755	     -0.46983702	      0.93528232	      0.04224921	    -23.51046514	      0.67548834	      3.66471422	    -10.31994319	     32.21341376	     10.35323103	      9.74612401	      6.10036911	     -3.84914972	    -20.55621690	     -5.41895124	      6.11462430	     25.19898790	     38.64578189	    -25.59307951	      2.55018672	      5.15795856
      1.24500000	     11.34967304	     -1.35526902	     -3.30373788	     -0.46517770	      0.93483163	      0.04151178	    -23.63387675	      0.52071397	      3.60947682	    -10.66204932	     32.30781660	     10.54842319	      9.81824238	      6.16487640	     -3.74681065	    -19.76972793	     -6.02675251	      5.72190529	     24.28334015	     38.62168757	    -25.56381634	      2.38561097	      5.15619055
      1.25000000	     11.36693291	     -1.31173840	     -3.42165471	     -0.46051664	      0.93448515	      0.04071336	    -23.77552239	      0.34054710	      3.56978177	    -11.02064575	     32.37452840	     10.70887375	      9.91369177	      6.18468224	     -3.62051489	    -18.99213676	     -6.61475367	      5.31500655	     23.34444368	     38.57560227	    -25.56560079	      2.21014316	      5.19879650
      1.25500000	     11.36271699	     -1.23733637	     -3.50268527	     -0.45585854	      0.93418229	      0.03979040	    -23.87164758	      0.13658446	      3.46430768	    -11.42296801	     32.41831379	     10.92185620	     10.06505619	      6.23139036	     -3.44858247	    -18.16674525	     -7.19592708	      4.86672027	     22.36339717	     38.52194823	    -25.54308467	      2.02298268	      5.16842852
      1.26000000	     11.35899593	     -1.15228919	     -3.58731441	     -0.45120420	      0.93396425	      0.03882023	    -23.94529460	     -0.08328439	      3.36394046	    -11.86623775	     32.43363425	     11.12741857	     10.25228069	      6.27241746	     -3.25892648	    -17.36195574	     -7.77481463	      4.43390756	     21.36561601	     38.45406822	    -25.52176989	      1.82752997	      5.15012459
      1.26500000	     11.35190389	     -1.04519700	     -3.63463052	     -0.44654071	      0.93380786	      0.03774939	    -23.99270245	     -0.31908293	      3.19428331	    -12.35675583	     32.41471146	     11.41220435	     10.56484215	      6.32395692	     -3.03785091	    -16.54879904	     -8.36254374	      4.00244681	     20.38463784	     38.37651560	    -25.49509720	      1.62690184	      5.05751493
      1.27000000	     11.35283481	     -0.92851397	     -3.68046158	     -0.44188329	      0.93373591	      0.03661342	    -24.00813420	     -0.57024227	      2.98041877	    -12.92570353	     32.36698334	     11.67335750	     11.07078373	      6.35551022	     -2.79735818	    -15.74040766	     -8.93422015	      3.64887468	     19.41535507	     38.26701344	    -25.47930880	      1.42348243	      5.01958099
      1.27500000	     11.35590405	     -0.81931668	     -3.74520499	     -0.43722465	      0.93376819	      0.03550999	    -24.04365212	     -0.81821617	      2.91897655	    -13.44073125	     32.25800734	     11.84573230	     11.40460722	      6.38617206	     -2.56818286	    -15.01673856	     -9.53100057	      3.30370706	     18.39770272	     38.12246727	    -25.46755518	      1.21918712	      5.00901662
      1.28000000	     11.35978269	     -0.69445835	     -3.76680800	     -0.43257365	      0.93384878	      0.03429040	    -24.01967491	     -1.07870491	      2.71255666	    -14.08763150	     32.12846346	     12.16251861	     11.86358273	      6.41555515	     -2.31169175	    -14.27405577	    -10.11917331	      3.02768217	     17.43340389	     37.93041103	    -25.45942669	      1.02102946	      4.91737238
      1.28500000	     11.40389346	     -0.58799264	     -3.81292504	     -0.42786804	      0.93407685	      0.03313992	    -24.02545537	     -1.33190239	      2.55241075	    -14.73471964	     31.64709567	     12.33142906	     15.49102839	      6.37690163	     -2.08307279	    -13.64664935	    -10.70615553	      2.95909928	     16.70913281	     36.67796406	    -25.48929305	      0.82529204	      4.90409491
      1.29000000	     11.40061851	     -0.46141687	     -3.79628668	     -0.42320159	      0.93426928	      0.03185844	    -23.95424253	     -1.58384875	      2.33926027	    -15.45750535	     31.47219866	     12.60181308	     15.64433590	      6.41348286	     -1.82390137	    -12.96419682	    -11.31364995	      2.83090747	     15.84389228	     36.46556986	    -25.47259651	      0.64287139	      4.80909227
      1.29500000	     11.41821686	     -0.34038612	     -3.79336252	     -0.41850470	      0.93455574	      0.03059715	    -23.85565089	     -1.84961269	      2.09753565	    -16.28032424	     31.25419411	     13.04312514	     15.92879429	      6.40019638	     -1.57148008	    -12.36571092	    -11.88900256	      2.79882792	     15.06576947	     36.20660442	    -25.47499739	      0.46006541	      4.73630326
      1.30000000	     11.51995949	     -0.20441286	     -3.79111874	     -0.41371952	      0.93502026	      0.02936114	    -23.83690436	     -2.14722012	      1.77849143	    -17.10193686	     30.73116577	     13.44660547	     19.21381357	      6.26041936	     -1.30879638	    -11.86858821	    -12.43780813	      2.98027121	     14.72385070	     33.76520773	    -25.56055503	      0.25393213	      4.70058800
      1.30500000	     11.47730794	     -0.10592856	     -3.74446911	     -0.40903390	      0.93534103	      0.02808206	    -23.61519668	     -2.37327154	      1.54163657	    -18.02978472	     30.38155944	     13.81940823	     19.40271835	      6.30440886	     -1.08955798	    -11.32417157	    -13.01053394	      3.03072526	     14.04511402	     33.45548946	    -25.49849265	      0.11419303	      4.61452396
      1.31000000	     11.55860077	     -0.00502984	     -3.71902333	     -0.40424714	      0.93589535	      0.02687352	    -23.52097442	     -2.63028977	      1.27688621	    -18.94246218	     29.70555592	     14.22162560	     22.48057522	      6.16793126	     -0.87537178	    -10.93620945	    -13.55236930	      3.38130199	     13.80943568	     30.32725363	    -25.56239433	     -0.04678907	      4.55028654
